<?xml version="1.0" encoding="UTF-8" standalone="no"?>
<!-- Created with Inkscape (http://www.inkscape.org/) -->
<svg id="svg2" xmlns:rdf="http://www.w3.org/1999/02/22-rdf-syntax-ns#" xmlns="http://www.w3.org/2000/svg" height="40" width="150" version="1.1" xmlns:cc="http://creativecommons.org/ns#" xmlns:dc="http://purl.org/dc/elements/1.1/" viewBox="0 0 150.00001 39.999999">
 <metadata id="metadata7">
  <rdf:RDF>
   <cc:Work rdf:about="">
    <dc:format>image/svg+xml</dc:format>
    <dc:type rdf:resource="http://purl.org/dc/dcmitype/StillImage"/>
    <dc:title/>
   </cc:Work>
  </rdf:RDF>
 </metadata>
 <g id="layer1" transform="translate(0 -1012.4)">
  <g id="text4136" fill="#3080ff" transform="translate(-16.057 12.976)">
   <path id="path4141" d="m25.817 1029.7q-3.08 0-4.72-1.64-1.6-1.64-1.6-4.64v-10.28h-3.44v-3.36h3.44v-6h3.68v6h4.8v3.36h-4.8v10q0 3.2 2.64 3.2 1 0 1.68-0.32l1.28 3.16q-1.2 0.52-2.96 0.52z"/>
   <path id="path4143" d="m48.677 1029.3h-3.52v-2.72h-0.16q-0.84 1.4-2.56 2.4-1.72 0.96-3.64 0.96-3.68 0-5.6-2.24-1.88-2.24-1.88-6v-12h3.68v11.4q0 5.48 4.84 5.48 2.28 0 3.72-1.84t1.44-4.24v-10.8h3.68v19.6z"/>
   <path id="path4145" d="m56.876 1029.3h-3.68v-19.6h3.52v3.2h0.16q0.56-1.6 2.28-2.64 1.76-1.04 3.4-1.04t2.76 0.48l-1.4 3.44q-0.72-0.28-1.96-0.28-2 0-3.56 1.6-1.52 1.56-1.52 4.12v10.72z"/>
   <path id="path4147" d="m78.322 1030q-2.24 0-4.04-0.96-1.76-0.96-2.64-2.4h-0.16v2.72h-3.52v-28.64h3.68v9.04l-0.16 2.72h0.16q0.88-1.44 2.64-2.4 1.8-0.96 4.04-0.96 3.8 0 6.56 3t2.76 7.44-2.76 7.44-6.56 3zm-0.6-3.36q2.56 0 4.4-1.92 1.84-1.96 1.84-5.16t-1.84-5.12q-1.84-1.96-4.4-1.96-2.6 0-4.44 1.92-1.8 1.92-1.8 5.16t1.8 5.16q1.84 1.92 4.44 1.92z"/>
   <path id="path4149" d="m92.729 1012.1q2.84-3 7.24-3t7.24 3q2.84 2.96 2.84 7.44t-2.84 7.48q-2.84 2.96-7.24 2.96t-7.24-2.96q-2.84-3-2.84-7.48t2.84-7.44zm2.72 12.6q1.92 1.92 4.52 1.92t4.48-1.92q1.92-1.96 1.92-5.16t-1.92-5.12q-1.88-1.96-4.48-1.96t-4.52 1.96q-1.88 1.92-1.88 5.12t1.88 5.16z"/>
   <path id="path4151" d="m117.75 1028.8q-0.8 0.8-1.92 0.8t-1.92-0.8-0.8-1.92 0.8-1.92 1.92-0.8 1.92 0.8 0.8 1.92-0.8 1.92z"/>
   <path id="path4153" d="m125.95 1004.8q-0.76 0.76-1.84 0.76t-1.84-0.76-0.76-1.84 0.76-1.84 1.84-0.76 1.84 0.76 0.76 1.84-0.76 1.84zm-5.88 33.56q-1.08 0-2.16-0.4l0.96-3.2q0.52 0.24 1.08 0.24 2.32 0 2.32-3.04v-22.24h3.68v22.24q0 3.24-1.56 4.8-1.56 1.6-4.32 1.6z"/>
   <path id="path4155" d="m137.82 1030q-3.28 0-5.44-1.6-2.12-1.6-3.12-4l3.28-1.36q1.56 3.68 5.32 3.68 1.72 0 2.8-0.76 1.12-0.76 1.12-2 0-1.92-2.68-2.6l-3.96-0.96q-1.88-0.48-3.56-1.8-1.68-1.36-1.68-3.64 0-2.6 2.28-4.2 2.32-1.64 5.48-1.64 2.6 0 4.64 1.2 2.04 1.16 2.92 3.36l-3.2 1.32q-1.08-2.6-4.48-2.6-1.64 0-2.76 0.68t-1.12 1.84q0 1.68 2.6 2.28l3.88 0.92q2.76 0.64 4.08 2.2t1.32 3.52q0 2.64-2.16 4.4t-5.56 1.76z"/>
  </g>
 </g>
</svg>
